<?xml version="1.0" standalone="no"?>
<!DOCTYPE svg PUBLIC "-//W3C//DTD SVG 1.1//EN" "http://www.w3.org/Graphics/SVG/1.1/DTD/svg11.dtd" >
<svg xmlns="http://www.w3.org/2000/svg" xmlns:xlink="http://www.w3.org/1999/xlink" version="1.1">
<metadata>
Created by FontForge 20170731 at Mon Feb  7 00:03:05 2022
 By Aleksey,,,
</metadata>
<defs>
<font id="MolodofontRegular" horiz-adv-x="778" >
  <font-face 
    font-family="Molodo-font"
    font-weight="400"
    font-stretch="normal"
    units-per-em="2048"
    panose-1="0 0 0 0 0 0 0 0 0 0"
    ascent="1638"
    descent="-410"
    x-height="1434"
    cap-height="1436"
    bbox="20 -221 1440 1622"
    underline-thickness="102"
    underline-position="-307"
    unicode-range="U+000A-FB00"
  />
<missing-glyph horiz-adv-x="1024" 
 />
    <glyph glyph-name="fF.liga" unicode="fF" horiz-adv-x="1351" 
d="M102 0v1434h478v-192h-286v-286h191v-191h-191v-765h-192zM676 1434h573v-383h-191v191h-191v-286h191v-191h-191v-765h-191v1434z" />
    <glyph glyph-name="Ff.liga" unicode="Ff" horiz-adv-x="1351" 
d="M102 0v1434h478v-192h-286v-286h191v-191h-191v-765h-192zM676 1434h573v-383h-191v191h-191v-286h191v-191h-191v-765h-191v1434z" />
    <glyph glyph-name="FF.liga" unicode="FF" horiz-adv-x="1351" 
d="M102 0v1434h478v-192h-286v-286h191v-191h-191v-765h-192zM676 1434h573v-383h-191v191h-191v-286h191v-191h-191v-765h-191v1434z" />
    <glyph glyph-name="tf.liga" unicode="tf" horiz-adv-x="1542" 
d="M102 1051v383h669v-192h-191v-1242h-191v1242h-95v-191h-192zM867 1434h573v-383h-191v191h-191v-286h191v-191h-191v-765h-191v1434z" />
    <glyph glyph-name="Tf.liga" unicode="Tf" horiz-adv-x="1542" 
d="M102 1051v383h669v-192h-191v-1242h-191v1242h-95v-191h-192zM867 1434h573v-383h-191v191h-191v-286h191v-191h-191v-765h-191v1434z" />
    <glyph glyph-name="tF.liga" unicode="tF" horiz-adv-x="1542" 
d="M102 1051v383h669v-192h-191v-1242h-191v1242h-95v-191h-192zM867 1434h573v-383h-191v191h-191v-286h191v-191h-191v-765h-191v1434z" />
    <glyph glyph-name="TF.liga" unicode="TF" horiz-adv-x="1542" 
d="M102 1051v383h669v-192h-191v-1242h-191v1242h-95v-191h-192zM867 1434h573v-383h-191v191h-191v-286h191v-191h-191v-765h-191v1434z" />
    <glyph glyph-name="ft.liga" unicode="ft" horiz-adv-x="1542" 
d="M676 1434h764v-383h-191v191h-95v-1242h-191v1242h-96v-191h-191v383zM102 0v1434h478v-192h-286v-286h191v-191h-191v-765h-192z" />
    <glyph glyph-name="Ft.liga" unicode="Ft" horiz-adv-x="1542" 
d="M676 1434h764v-383h-191v191h-95v-1242h-191v1242h-96v-191h-191v383zM102 0v1434h478v-192h-286v-286h191v-191h-191v-765h-192z" />
    <glyph glyph-name="fT.liga" unicode="fT" horiz-adv-x="1542" 
d="M676 1434h764v-383h-191v191h-95v-1242h-191v1242h-96v-191h-191v383zM102 0v1434h478v-192h-286v-286h191v-191h-191v-765h-192z" />
    <glyph glyph-name="FT.liga" unicode="FT" horiz-adv-x="1542" 
d="M676 1434h764v-383h-191v191h-95v-1242h-191v1242h-96v-191h-191v383zM102 0v1434h478v-192h-286v-286h191v-191h-191v-765h-192z" />
    <glyph glyph-name="ff.liga" unicode="ff" horiz-adv-x="1351" 
d="M102 0v1434h478v-192h-286v-286h191v-191h-191v-765h-192zM676 1434h573v-383h-191v191h-191v-286h191v-191h-191v-765h-191v1434z" />
    <glyph glyph-name=".notdef" horiz-adv-x="1024" 
 />
    <glyph glyph-name=".null" horiz-adv-x="0" 
 />
    <glyph glyph-name="nonmarkingreturn" horiz-adv-x="682" 
 />
    <glyph glyph-name="LF" unicode="&#xa;" horiz-adv-x="0" 
 />
    <glyph glyph-name="controlCR" unicode="&#xd;" horiz-adv-x="0" 
 />
    <glyph glyph-name="space" unicode=" " horiz-adv-x="399" 
 />
    <glyph glyph-name="exclam" unicode="!" horiz-adv-x="395" 
d="M294 353h-192v1051h192v-1051zM294 -30h-192v191h192v-191z" />
    <glyph glyph-name="quotedbl" unicode="&#x22;" horiz-adv-x="518" 
d="M307 1428h191v-382h-191v382zM20 1428h192v-382h-192v382z" />
    <glyph glyph-name="numbersign" unicode="#" horiz-adv-x="874" 
d="M102 1022h96v191h191v-191h96v191h191v-191h95v-192h-95v-286h95v-191h-95v-192h-191v192h-96v-192h-191v192h-96v191h96v286h-96v192zM485 830h-96v-286h96v286z" />
    <glyph glyph-name="dollar" unicode="$" 
d="M159 1292q51 71 135 98v205h191v-205q84 -27 135 -98q56 -78 56 -175v-95h-191v95q0 36 -21 64q-23 32 -75 32t-75 -32q-20 -27 -20 -64v-56l382 -382v-422q0 -97 -56 -175q-51 -71 -135 -98v-205h-191v205q-84 27 -135 98q-57 80 -57 175v191h192v-191q0 -37 20 -64
q23 -32 75 -32t75 32q21 30 21 64v343l-383 382v135q0 95 57 175z" />
    <glyph glyph-name="percent" unicode="%" horiz-adv-x="1255" 
d="M485 1117q0 40 -28 68t-68 28t-67.5 -28t-27.5 -68t27.5 -67.5t67.5 -27.5t68 27.5t28 67.5zM389 830q-119 0 -203 84t-84 203t84 203t203 84t203 -84t84 -203t-84 -203t-203 -84zM991 1185l135 -135l-860 -861l-136 136zM963 257q0 40 -28 68t-68 28t-68 -28t-28 -68
t28 -68t68 -28t68 28t28 68zM867 -30q-119 0 -203 84t-84 203t84 203t203 84t203 -84t84 -203t-84 -203t-203 -84z" />
    <glyph glyph-name="ampersand" unicode="&#x26;" 
d="M676 1117v-135l-152 -152l124 -123l-135 -135l-124 123l-95 -95v-343q0 -35 20 -64q23 -32 75 -32t75 32q21 28 21 64v191h191v-191q0 -97 -56 -175q-80 -112 -231 -112q-149 0 -230 112q-57 80 -57 175v422l152 151l-152 152v135q0 95 57 175q80 112 230 112
q151 0 231 -112q56 -78 56 -175zM485 1061v56q0 35 -20 64q-23 32 -76 32q-52 0 -75 -32q-20 -27 -20 -64v-56l95 -95z" />
    <glyph glyph-name="quotesingle" unicode="'" horiz-adv-x="231" 
d="M212 1052h-192v383h192v-383z" />
    <glyph glyph-name="parenleft" unicode="(" horiz-adv-x="491" 
d="M102 1117q0 111 88 199t199 88v-191q-32 0 -64 -32q-31 -31 -31 -64v-860q0 -33 31 -64q32 -32 64 -32v-191q-111 0 -199 88t-88 199v860z" />
    <glyph glyph-name="parenright" unicode=")" horiz-adv-x="491" 
d="M389 257q0 -111 -88 -199t-199 -88v191q32 0 64 32t32 64v860q0 32 -32 64t-64 32v191q111 0 199 -88t88 -199v-860z" />
    <glyph glyph-name="asterisk" unicode="*" horiz-adv-x="864" 
d="M102 629l116 58l-116 58l86 171l148 -74v180h191v-180l149 74l85 -171l-115 -58l115 -58l-85 -171l-149 74v-179h-191v179l-148 -74z" />
    <glyph glyph-name="plus" unicode="+" 
d="M294 448v191h-192v191h192v192h191v-192h191v-191h-191v-191h-191z" />
    <glyph glyph-name="comma" unicode="," horiz-adv-x="395" 
d="M294 -221h-192v382h192v-382z" />
    <glyph glyph-name="hyphen" unicode="-" 
d="M676 830v-191h-574v191h574z" />
    <glyph glyph-name="period" unicode="." horiz-adv-x="395" 
d="M294 -30h-192v191h192v-191z" />
    <glyph glyph-name="slash" unicode="/" horiz-adv-x="874" 
d="M771 1192l-477 -1051v-171h-192v212l478 1051v171h191v-212z" />
    <glyph glyph-name="zero" unicode="0" 
d="M389 1242q-52 0 -75 -31q-20 -27 -20 -64v-247l191 191v56q0 36 -21 64q-23 31 -75 31zM485 287v534l-191 -192v-342q0 -37 20 -64q23 -32 75 -32t75 32q21 28 21 64zM102 1147q0 95 57 175q80 112 230 112q151 0 231 -112q56 -78 56 -175v-860q0 -98 -56 -176
q-79 -111 -231 -111q-151 0 -230 111q-57 80 -57 176v860z" />
    <glyph glyph-name="one" unicode="1" horiz-adv-x="491" 
d="M198 0v1242h-96v192h287v-1434h-191z" />
    <glyph glyph-name="two" unicode="2" 
d="M464 1211q-23 31 -75 31t-75 -31q-20 -27 -20 -64v-96h-192v96q0 95 57 175q80 112 230 112q151 0 231 -112q56 -78 56 -175v-135l-382 -383v-438h191v287h191v-478h-574v709l383 382v56q0 34 -21 64z" />
    <glyph glyph-name="three" unicode="3" 
d="M102 1051v383h574v-383q0 -148 -77 -249q-17 -23 -38 -41q115 -107 115 -283v-191q0 -111 -88 -199t-199 -88t-199 88t-88 199v191h192v-191q0 -33 31 -64q32 -32 64 -32t64 32t32 64v191q0 93 -55 144q-52 47 -136 47v191q108 0 153 59q38 48 38 132v191h-191v-191h-192
z" />
    <glyph glyph-name="four" unicode="4" 
d="M102 669v765h192v-574h191v574h191v-1434h-191v669h-383z" />
    <glyph glyph-name="five" unicode="5" 
d="M102 765v669h574v-192h-382v-286q182 0 282 -100t100 -283v-286q0 -111 -88 -199t-199 -88t-199 88t-88 199v191h192v-191q0 -33 31 -64q32 -32 64 -32t64 32t32 64v286q0 104 -44 148t-147 44h-192z" />
    <glyph glyph-name="six" unicode="6" 
d="M389 1242q-52 0 -75 -31q-20 -29 -20 -64v-191q182 0 282 -100t100 -283v-286q0 -98 -56 -176q-79 -111 -231 -111q-151 0 -230 111q-57 80 -57 176v860q0 95 57 175q80 112 230 112q151 0 231 -112q56 -78 56 -175v-96h-191v96q0 36 -21 64q-23 31 -75 31zM441 721
q-44 44 -147 44v-478q0 -37 20 -64q23 -32 75 -32t75 32q21 30 21 64v286q0 104 -44 148z" />
    <glyph glyph-name="seven" unicode="7" 
d="M102 1051v383h574v-394l-191 -765v-275h-191v298l191 765v179h-191v-191h-192z" />
    <glyph glyph-name="eight" unicode="8" 
d="M676 1147q0 -170 -153 -335q69 -75 111 -155t42 -179v-207h-1q-6 -92 -55 -160q-80 -111 -231 -111q-150 0 -230 111q-50 70 -56 160h-1v207q0 99 42 179t111 155q-153 165 -153 335q0 95 57 175q80 112 230 112q151 0 231 -112q56 -78 56 -175zM485 287v191
q0 52 -23.5 97.5t-72.5 99.5q-48 -54 -71.5 -99.5t-23.5 -97.5v-191q0 -35 20 -64q23 -32 75 -32t75 32q21 28 21 64zM389 950q49 54 72.5 99.5t23.5 97.5q0 34 -21 64q-23 31 -75 31t-75 -31q-20 -27 -20 -64q0 -52 23.5 -97.5t71.5 -99.5z" />
    <glyph glyph-name="nine" unicode="9" 
d="M389 191q52 0 75 32q21 30 21 64v382q-183 0 -283 100t-100 282v96q0 95 57 175q79 112 230 112q152 0 231 -112q56 -78 56 -175v-860q0 -98 -56 -176q-80 -111 -231 -111q-150 0 -230 111q-57 80 -57 176v191h192v-191q0 -37 20 -64q23 -32 75 -32zM337 904
q44 -44 148 -44v287q0 36 -21 64q-23 31 -75 31t-75 -31q-20 -27 -20 -64v-96q0 -104 43 -147z" />
    <glyph glyph-name="colon" unicode=":" horiz-adv-x="395" 
d="M102 830h192v-191h-192v191zM294 -30h-192v191h192v-191z" />
    <glyph glyph-name="semicolon" unicode=";" horiz-adv-x="395" 
d="M102 830h192v-191h-192v191zM294 -221h-192v382h192v-382z" />
    <glyph glyph-name="less" unicode="&#x3c;" horiz-adv-x="790" 
d="M373 647l315 -325l-137 -134l-449 462l451 438l133 -137z" />
    <glyph glyph-name="equal" unicode="=" 
d="M676 735v-191h-574v191h574zM676 1022v-192h-574v192h574z" />
    <glyph glyph-name="greater" unicode="&#x3e;" horiz-adv-x="790" 
d="M418 630l-316 325l137 133l449 -462l-451 -438l-133 138z" />
    <glyph glyph-name="question" unicode="?" 
d="M464 1181q-23 32 -75 32t-75 -32q-20 -27 -20 -64v-95h-192v95q0 95 57 175q80 112 230 112q151 0 231 -112q56 -78 56 -175v-231l-191 -191v-342h-191v421l191 192v151q0 34 -21 64zM485 -30h-191v191h191v-191z" />
    <glyph glyph-name="at" unicode="@" horiz-adv-x="1351" 
d="M102 830q0 254 160 414t414 160t414 -160q159 -159 159 -414v-286h-286q0 -96 -57 -176q-79 -111 -230 -111q-152 0 -231 111q-56 78 -56 176v286q0 98 56 176q80 111 231 111q150 0 230 -111q57 -80 57 -176v-95h95v95q0 176 -103 279q-104 104 -279 104t-279 -104
q-103 -103 -103 -279v-286q0 -176 103 -279q104 -104 279 -104h287v-191h-287q-254 0 -414 160t-160 414v286zM676 926q-53 0 -76 -32q-20 -29 -20 -64v-286q0 -36 21 -64q23 -32 75 -32t75 32q20 29 20 64v286q0 37 -20 64q-23 32 -75 32z" />
    <glyph glyph-name="A" unicode="A" 
d="M580 1434h96v-1434h-191v669h-191v-669h-192v860q0 79 21.5 172.5t68.5 174.5q59 102 155.5 164.5t232.5 62.5zM485 860v366q-79 -31 -128 -115q-63 -109 -63 -251h191z" />
    <glyph glyph-name="A" unicode="&#xc5;" 
d="M580 1434h96v-1434h-191v669h-191v-669h-192v860q0 79 21.5 172.5t68.5 174.5q59 102 155.5 164.5t232.5 62.5zM485 860v366q-79 -31 -128 -115q-63 -109 -63 -251h191z" />
    <glyph glyph-name="A" unicode="&#xc4;" 
d="M580 1434h96v-1434h-191v669h-191v-669h-192v860q0 79 21.5 172.5t68.5 174.5q59 102 155.5 164.5t232.5 62.5zM485 860v366q-79 -31 -128 -115q-63 -109 -63 -251h191z" />
    <glyph glyph-name="A" unicode="&#xc3;" 
d="M580 1434h96v-1434h-191v669h-191v-669h-192v860q0 79 21.5 172.5t68.5 174.5q59 102 155.5 164.5t232.5 62.5zM485 860v366q-79 -31 -128 -115q-63 -109 -63 -251h191z" />
    <glyph glyph-name="A" unicode="&#xc2;" 
d="M580 1434h96v-1434h-191v669h-191v-669h-192v860q0 79 21.5 172.5t68.5 174.5q59 102 155.5 164.5t232.5 62.5zM485 860v366q-79 -31 -128 -115q-63 -109 -63 -251h191z" />
    <glyph glyph-name="A" unicode="&#xc1;" 
d="M580 1434h96v-1434h-191v669h-191v-669h-192v860q0 79 21.5 172.5t68.5 174.5q59 102 155.5 164.5t232.5 62.5zM485 860v366q-79 -31 -128 -115q-63 -109 -63 -251h191z" />
    <glyph glyph-name="A" unicode="&#xc0;" 
d="M580 1434h96v-1434h-191v669h-191v-669h-192v860q0 79 21.5 172.5t68.5 174.5q59 102 155.5 164.5t232.5 62.5zM485 860v366q-79 -31 -128 -115q-63 -109 -63 -251h191z" />
    <glyph glyph-name="B" unicode="B" 
d="M676 96v-96h-574v1434h574v-96q0 -260 -109 -443q-50 -85 -120 -140q73 -70 124 -176q52 -107 78.5 -234.5t26.5 -248.5zM294 1242v-359q65 34 109 110q59 98 76 249h-185zM399 496q-46 96 -105 139v-444h186q-18 175 -81 305z" />
    <glyph glyph-name="C" unicode="C" 
d="M389 1242q-52 0 -75 -31q-20 -29 -20 -64v-860q0 -37 20 -64q23 -32 75 -32t75 32q21 30 21 64v286h191v-286q0 -98 -56 -176q-79 -111 -231 -111q-151 0 -230 111q-57 80 -57 176v860q0 95 57 175q80 112 230 112q151 0 231 -112q56 -78 56 -175v-96h-191v96
q0 36 -21 64q-23 31 -75 31z" />
    <glyph glyph-name="C" unicode="&#xc7;" 
d="M389 1242q-52 0 -75 -31q-20 -29 -20 -64v-860q0 -37 20 -64q23 -32 75 -32t75 32q21 30 21 64v286h191v-286q0 -98 -56 -176q-79 -111 -231 -111q-151 0 -230 111q-57 80 -57 176v860q0 95 57 175q80 112 230 112q151 0 231 -112q56 -78 56 -175v-96h-191v96
q0 36 -21 64q-23 31 -75 31z" />
    <glyph glyph-name="D" unicode="D" 
d="M102 0v1434h287q151 0 231 -112q56 -78 56 -175v-860q0 -98 -56 -176q-79 -111 -231 -111h-287zM389 1242h-95v-1051h95q52 0 75 32q21 30 21 64v860q0 36 -21 64q-23 31 -75 31z" />
    <glyph glyph-name="E" unicode="E" 
d="M160 1213q52 106 153 161q107 60 267 60h96v-383h-191v183q-45 -8 -79 -27q-50 -27 -75 -79q-31 -63 -36 -172h190v-191h-191v-574h191v287h191v-478h-574v868q0 66 2 108t15.5 113t40.5 124z" />
    <glyph glyph-name="E" unicode="&#xcb;" 
d="M160 1213q52 106 153 161q107 60 267 60h96v-383h-191v183q-45 -8 -79 -27q-50 -27 -75 -79q-31 -63 -36 -172h190v-191h-191v-574h191v287h191v-478h-574v868q0 66 2 108t15.5 113t40.5 124z" />
    <glyph glyph-name="E" unicode="&#xca;" 
d="M160 1213q52 106 153 161q107 60 267 60h96v-383h-191v183q-45 -8 -79 -27q-50 -27 -75 -79q-31 -63 -36 -172h190v-191h-191v-574h191v287h191v-478h-574v868q0 66 2 108t15.5 113t40.5 124z" />
    <glyph glyph-name="E" unicode="&#xc9;" 
d="M160 1213q52 106 153 161q107 60 267 60h96v-383h-191v183q-45 -8 -79 -27q-50 -27 -75 -79q-31 -63 -36 -172h190v-191h-191v-574h191v287h191v-478h-574v868q0 66 2 108t15.5 113t40.5 124z" />
    <glyph glyph-name="E" unicode="&#xc8;" 
d="M160 1213q52 106 153 161q107 60 267 60h96v-383h-191v183q-45 -8 -79 -27q-50 -27 -75 -79q-31 -63 -36 -172h190v-191h-191v-574h191v287h191v-478h-574v868q0 66 2 108t15.5 113t40.5 124z" />
    <glyph glyph-name="F" unicode="F" 
d="M102 0v1434h574v-383h-191v191h-191v-286h191v-191h-191v-765h-192z" />
    <glyph glyph-name="G" unicode="G" 
d="M389 1242q-52 0 -75 -31q-20 -29 -20 -64v-860q0 -37 20 -64q23 -32 75 -32t75 32q21 30 21 64v382h-96v191h287v-573q0 -98 -56 -176q-79 -111 -231 -111q-151 0 -230 111q-57 80 -57 176v860q0 95 57 175q80 112 230 112q151 0 231 -112q56 -78 56 -175v-96h-191v96
q0 36 -21 64q-23 31 -75 31z" />
    <glyph glyph-name="H" unicode="H" 
d="M102 0v1434h192v-478h191v478h191v-1434h-191v765h-191v-765h-192z" />
    <glyph glyph-name="I" unicode="I" horiz-adv-x="395" 
d="M294 0h-192v1434h192v-1434z" />
    <glyph glyph-name="I" unicode="&#xcf;" horiz-adv-x="395" 
d="M294 0h-192v1434h192v-1434z" />
    <glyph glyph-name="I" unicode="&#xce;" horiz-adv-x="395" 
d="M294 0h-192v1434h192v-1434z" />
    <glyph glyph-name="I" unicode="&#xcd;" horiz-adv-x="395" 
d="M294 0h-192v1434h192v-1434z" />
    <glyph glyph-name="I" unicode="&#xcc;" horiz-adv-x="395" 
d="M294 0h-192v1434h192v-1434z" />
    <glyph glyph-name="J" unicode="J" 
d="M102 1051v383h574v-1147q0 -98 -56 -176q-79 -111 -231 -111q-151 0 -230 111q-57 80 -57 176v191h192v-191q0 -37 20 -64q23 -32 75 -32t75 32q21 28 21 64v955h-191v-191h-192z" />
    <glyph glyph-name="K" unicode="K" horiz-adv-x="790" 
d="M102 1434h192v-558q81 30 129 115q73 127 73 347v96h191v-96q0 -270 -98 -442q-48 -86 -121 -141q73 -66 125 -177q94 -202 94 -482v-96h-191v96q0 238 -76 401q-52 110 -126 149v-646h-192v1434z" />
    <glyph glyph-name="L" unicode="L" 
d="M102 0v1434h192v-1243h191v287h191v-478h-574z" />
    <glyph glyph-name="M" unicode="M" horiz-adv-x="1161" 
d="M102 0v1434h96q68 0 147 -23t148 -72q47 -35 83 -79q34 45 78 78q127 96 309 96h95v-1434h-191v1231q-59 -15 -98 -46q-93 -70 -93 -229v-287h-191v287q0 152 -104 228q-38 28 -87 43v-1227h-192z" />
    <glyph glyph-name="N" unicode="N" 
d="M676 1434v-1434h-191v629l-191 192v-821h-192v1434h192v-343l191 -191v534h191z" />
    <glyph glyph-name="N" unicode="&#xd1;" 
d="M676 1434v-1434h-191v629l-191 192v-821h-192v1434h192v-343l191 -191v534h191z" />
    <glyph glyph-name="O" unicode="O" 
d="M389 1242q-52 0 -75 -31q-20 -29 -20 -64v-860q0 -37 20 -64q23 -32 75 -32t75 32q21 30 21 64v860q0 36 -21 64q-23 31 -75 31zM102 1147q0 95 57 175q80 112 230 112q151 0 231 -112q56 -78 56 -175v-860q0 -98 -56 -176q-79 -111 -231 -111q-151 0 -230 111
q-57 80 -57 176v860z" />
    <glyph glyph-name="O" unicode="&#xd8;" 
d="M389 1242q-52 0 -75 -31q-20 -29 -20 -64v-860q0 -37 20 -64q23 -32 75 -32t75 32q21 30 21 64v860q0 36 -21 64q-23 31 -75 31zM102 1147q0 95 57 175q80 112 230 112q151 0 231 -112q56 -78 56 -175v-860q0 -98 -56 -176q-79 -111 -231 -111q-151 0 -230 111
q-57 80 -57 176v860z" />
    <glyph glyph-name="O" unicode="&#xd6;" 
d="M389 1242q-52 0 -75 -31q-20 -29 -20 -64v-860q0 -37 20 -64q23 -32 75 -32t75 32q21 30 21 64v860q0 36 -21 64q-23 31 -75 31zM102 1147q0 95 57 175q80 112 230 112q151 0 231 -112q56 -78 56 -175v-860q0 -98 -56 -176q-79 -111 -231 -111q-151 0 -230 111
q-57 80 -57 176v860z" />
    <glyph glyph-name="O" unicode="&#xd5;" 
d="M389 1242q-52 0 -75 -31q-20 -29 -20 -64v-860q0 -37 20 -64q23 -32 75 -32t75 32q21 30 21 64v860q0 36 -21 64q-23 31 -75 31zM102 1147q0 95 57 175q80 112 230 112q151 0 231 -112q56 -78 56 -175v-860q0 -98 -56 -176q-79 -111 -231 -111q-151 0 -230 111
q-57 80 -57 176v860z" />
    <glyph glyph-name="O" unicode="&#xd4;" 
d="M389 1242q-52 0 -75 -31q-20 -29 -20 -64v-860q0 -37 20 -64q23 -32 75 -32t75 32q21 30 21 64v860q0 36 -21 64q-23 31 -75 31zM102 1147q0 95 57 175q80 112 230 112q151 0 231 -112q56 -78 56 -175v-860q0 -98 -56 -176q-79 -111 -231 -111q-151 0 -230 111
q-57 80 -57 176v860z" />
    <glyph glyph-name="O" unicode="&#xd3;" 
d="M389 1242q-52 0 -75 -31q-20 -29 -20 -64v-860q0 -37 20 -64q23 -32 75 -32t75 32q21 30 21 64v860q0 36 -21 64q-23 31 -75 31zM102 1147q0 95 57 175q80 112 230 112q151 0 231 -112q56 -78 56 -175v-860q0 -98 -56 -176q-79 -111 -231 -111q-151 0 -230 111
q-57 80 -57 176v860z" />
    <glyph glyph-name="O" unicode="&#xd2;" 
d="M389 1242q-52 0 -75 -31q-20 -29 -20 -64v-860q0 -37 20 -64q23 -32 75 -32t75 32q21 30 21 64v860q0 36 -21 64q-23 31 -75 31zM102 1147q0 95 57 175q80 112 230 112q151 0 231 -112q56 -78 56 -175v-860q0 -98 -56 -176q-79 -111 -231 -111q-151 0 -230 111
q-57 80 -57 176v860z" />
    <glyph glyph-name="P" unicode="P" 
d="M102 0v1434h574v-96q0 -269 -96 -441q-100 -181 -286 -219v-678h-192zM294 1242v-365q71 29 119 113q54 97 68 252h-187z" />
    <glyph glyph-name="Q" unicode="Q" 
d="M389 1242q-52 0 -75 -31q-20 -29 -20 -64v-860q0 -37 20 -64q23 -32 75 -32t75 32q21 30 21 64v860q0 36 -21 64q-23 31 -75 31zM102 1147q0 95 57 175q80 112 230 112q151 0 231 -112q56 -78 56 -175v-860q0 -98 -56 -176q-50 -70 -135 -97v-205h-191v205
q-85 27 -135 97q-57 80 -57 176v860z" />
    <glyph glyph-name="R" unicode="R" 
d="M578 648q98 -155 98 -361v-287h-191v287q0 149 -69 260q-48 77 -122 105v-652h-192v1434h574v-96q0 -269 -96 -441q-45 -80 -106 -131q63 -51 104 -118zM413 990q54 97 68 252h-187v-365q71 29 119 113z" />
    <glyph glyph-name="S" unicode="S" 
d="M389 1242q-52 0 -75 -31q-20 -29 -20 -64v-56l382 -382v-422q0 -98 -56 -176q-80 -111 -231 -111t-230 111q-57 80 -57 176v191h192v-191q0 -37 20 -64q23 -32 75 -32t75 32q21 30 21 64v342l-383 383v135q0 95 57 175q80 112 230 112q151 0 231 -112q56 -78 56 -175v-96
h-191v96q0 36 -21 64q-23 31 -75 31z" />
    <glyph glyph-name="T" unicode="T" horiz-adv-x="968" 
d="M102 1051v383h765v-383h-191v191h-96v-1242h-191v1242h-95v-191h-192z" />
    <glyph glyph-name="U" unicode="U" 
d="M102 1434h192v-1147q0 -37 20 -64q23 -32 75 -32t75 32q21 30 21 64v1147h191v-1147q0 -98 -56 -176q-80 -111 -231 -111t-230 111q-57 80 -57 176v1147z" />
    <glyph glyph-name="U" unicode="&#xdc;" 
d="M102 1434h192v-1147q0 -37 20 -64q23 -32 75 -32t75 32q21 30 21 64v1147h191v-1147q0 -98 -56 -176q-80 -111 -231 -111t-230 111q-57 80 -57 176v1147z" />
    <glyph glyph-name="U" unicode="&#xdb;" 
d="M102 1434h192v-1147q0 -37 20 -64q23 -32 75 -32t75 32q21 30 21 64v1147h191v-1147q0 -98 -56 -176q-80 -111 -231 -111t-230 111q-57 80 -57 176v1147z" />
    <glyph glyph-name="U" unicode="&#xda;" 
d="M102 1434h192v-1147q0 -37 20 -64q23 -32 75 -32t75 32q21 30 21 64v1147h191v-1147q0 -98 -56 -176q-80 -111 -231 -111t-230 111q-57 80 -57 176v1147z" />
    <glyph glyph-name="U" unicode="&#xd9;" 
d="M102 1434h192v-1147q0 -37 20 -64q23 -32 75 -32t75 32q21 30 21 64v1147h191v-1147q0 -98 -56 -176q-80 -111 -231 -111t-230 111q-57 80 -57 176v1147z" />
    <glyph glyph-name="V" unicode="V" 
d="M102 323v1111h192v-999q53 -41 95 -104q41 62 96 104v999h191v-1111l-53 -26q-50 -25 -94 -105.5t-44 -191.5h-191q0 111 -44.5 191.5t-94.5 105.5z" />
    <glyph glyph-name="W" unicode="W" horiz-adv-x="1161" 
d="M1058 1434v-1434h-95q-68 0 -147.5 22.5t-147.5 71.5q-50 36 -84 79q-34 -44 -77 -77q-127 -96 -309 -96h-96v1434h192v-1231q59 15 97 45q94 71 94 230v764h191v-764q0 -153 103 -228q38 -28 88 -43v1227h191z" />
    <glyph glyph-name="X" unicode="X" 
d="M102 1434h192v-192q0 -96 95 -226q96 132 96 226v192h191v-192q0 -102 -45 -193.5t-120 -188.5q75 -97 120 -188.5t45 -193.5v-478h-191v478q0 94 -96 226q-95 -130 -95 -226v-478h-192v478q0 102 45 193.5t120 188.5q-75 97 -120 188.5t-45 193.5v192z" />
    <glyph glyph-name="Y" unicode="Y" 
d="M102 1434h192v-192q0 -96 95 -226q96 132 96 226v192h191v-192q0 -60 -16 -118.5t-48.5 -114t-58.5 -93t-68 -89.5v-827h-191v827q-42 53 -68 89.5t-59 93t-49 114.5t-16 118v192z" />
    <glyph glyph-name="Y" unicode="&#xdd;" 
d="M102 1434h192v-192q0 -96 95 -226q96 132 96 226v192h191v-192q0 -60 -16 -118.5t-48.5 -114t-58.5 -93t-68 -89.5v-827h-191v827q-42 53 -68 89.5t-59 93t-49 114.5t-16 118v192z" />
    <glyph glyph-name="Z" unicode="Z" 
d="M102 1051v383h574v-422l-382 -383v-438h191v287h191v-478h-574v709l383 382v151h-191v-191h-192z" />
    <glyph glyph-name="bracketleft" unicode="[" horiz-adv-x="491" 
d="M102 -77v1433h287v-191h-95v-1051h95v-191h-287z" />
    <glyph glyph-name="backslash" unicode="\" horiz-adv-x="874" 
d="M580 141l-478 1051v212h192v-171l477 -1051v-212h-191v171z" />
    <glyph glyph-name="bracketright" unicode="]" horiz-adv-x="491" 
d="M389 1356v-1433h-287v191h96v1051h-96v191h287z" />
    <glyph glyph-name="underscore" unicode="_" 
d="M676 -30v-191h-574v191h574z" />
    <glyph glyph-name="a" unicode="a" 
d="M580 1434h96v-1434h-191v669h-191v-669h-192v860q0 79 21.5 172.5t68.5 174.5q59 102 155.5 164.5t232.5 62.5zM485 860v366q-79 -31 -128 -115q-63 -109 -63 -251h191z" />
    <glyph glyph-name="a" unicode="&#xe5;" 
d="M580 1434h96v-1434h-191v669h-191v-669h-192v860q0 79 21.5 172.5t68.5 174.5q59 102 155.5 164.5t232.5 62.5zM485 860v366q-79 -31 -128 -115q-63 -109 -63 -251h191z" />
    <glyph glyph-name="a" unicode="&#xe4;" 
d="M580 1434h96v-1434h-191v669h-191v-669h-192v860q0 79 21.5 172.5t68.5 174.5q59 102 155.5 164.5t232.5 62.5zM485 860v366q-79 -31 -128 -115q-63 -109 -63 -251h191z" />
    <glyph glyph-name="a" unicode="&#xe3;" 
d="M580 1434h96v-1434h-191v669h-191v-669h-192v860q0 79 21.5 172.5t68.5 174.5q59 102 155.5 164.5t232.5 62.5zM485 860v366q-79 -31 -128 -115q-63 -109 -63 -251h191z" />
    <glyph glyph-name="a" unicode="&#xe2;" 
d="M580 1434h96v-1434h-191v669h-191v-669h-192v860q0 79 21.5 172.5t68.5 174.5q59 102 155.5 164.5t232.5 62.5zM485 860v366q-79 -31 -128 -115q-63 -109 -63 -251h191z" />
    <glyph glyph-name="a" unicode="&#xe1;" 
d="M580 1434h96v-1434h-191v669h-191v-669h-192v860q0 79 21.5 172.5t68.5 174.5q59 102 155.5 164.5t232.5 62.5zM485 860v366q-79 -31 -128 -115q-63 -109 -63 -251h191z" />
    <glyph glyph-name="a" unicode="&#xe0;" 
d="M580 1434h96v-1434h-191v669h-191v-669h-192v860q0 79 21.5 172.5t68.5 174.5q59 102 155.5 164.5t232.5 62.5zM485 860v366q-79 -31 -128 -115q-63 -109 -63 -251h191z" />
    <glyph glyph-name="b" unicode="b" 
d="M676 96v-96h-574v1434h574v-96q0 -260 -109 -443q-50 -85 -120 -140q73 -70 124 -176q52 -107 78.5 -234.5t26.5 -248.5zM294 1242v-359q65 34 109 110q59 98 76 249h-185zM399 496q-46 96 -105 139v-444h186q-18 175 -81 305z" />
    <glyph glyph-name="c" unicode="c" 
d="M389 1242q-52 0 -75 -31q-20 -29 -20 -64v-860q0 -37 20 -64q23 -32 75 -32t75 32q21 30 21 64v286h191v-286q0 -98 -56 -176q-79 -111 -231 -111q-151 0 -230 111q-57 80 -57 176v860q0 95 57 175q80 112 230 112q151 0 231 -112q56 -78 56 -175v-96h-191v96
q0 36 -21 64q-23 31 -75 31z" />
    <glyph glyph-name="c" unicode="&#xe7;" 
d="M389 1242q-52 0 -75 -31q-20 -29 -20 -64v-860q0 -37 20 -64q23 -32 75 -32t75 32q21 30 21 64v286h191v-286q0 -98 -56 -176q-79 -111 -231 -111q-151 0 -230 111q-57 80 -57 176v860q0 95 57 175q80 112 230 112q151 0 231 -112q56 -78 56 -175v-96h-191v96
q0 36 -21 64q-23 31 -75 31z" />
    <glyph glyph-name="d" unicode="d" 
d="M102 0v1434h287q151 0 231 -112q56 -78 56 -175v-860q0 -98 -56 -176q-79 -111 -231 -111h-287zM389 1242h-95v-1051h95q52 0 75 32q21 30 21 64v860q0 36 -21 64q-23 31 -75 31z" />
    <glyph glyph-name="e" unicode="e" 
d="M160 1213q52 106 153 161q107 60 267 60h96v-383h-191v183q-45 -8 -79 -27q-50 -27 -75 -79q-31 -63 -36 -172h190v-191h-191v-574h191v287h191v-478h-574v868q0 66 2 108t15.5 113t40.5 124z" />
    <glyph glyph-name="e" unicode="&#xeb;" 
d="M160 1213q52 106 153 161q107 60 267 60h96v-383h-191v183q-45 -8 -79 -27q-50 -27 -75 -79q-31 -63 -36 -172h190v-191h-191v-574h191v287h191v-478h-574v868q0 66 2 108t15.5 113t40.5 124z" />
    <glyph glyph-name="e" unicode="&#xea;" 
d="M160 1213q52 106 153 161q107 60 267 60h96v-383h-191v183q-45 -8 -79 -27q-50 -27 -75 -79q-31 -63 -36 -172h190v-191h-191v-574h191v287h191v-478h-574v868q0 66 2 108t15.5 113t40.5 124z" />
    <glyph glyph-name="e" unicode="&#xe9;" 
d="M160 1213q52 106 153 161q107 60 267 60h96v-383h-191v183q-45 -8 -79 -27q-50 -27 -75 -79q-31 -63 -36 -172h190v-191h-191v-574h191v287h191v-478h-574v868q0 66 2 108t15.5 113t40.5 124z" />
    <glyph glyph-name="e" unicode="&#xe8;" 
d="M160 1213q52 106 153 161q107 60 267 60h96v-383h-191v183q-45 -8 -79 -27q-50 -27 -75 -79q-31 -63 -36 -172h190v-191h-191v-574h191v287h191v-478h-574v868q0 66 2 108t15.5 113t40.5 124z" />
    <glyph glyph-name="f" unicode="f" 
d="M102 0v1434h574v-383h-191v191h-191v-286h191v-191h-191v-765h-192z" />
    <glyph glyph-name="g" unicode="g" 
d="M389 1242q-52 0 -75 -31q-20 -29 -20 -64v-860q0 -37 20 -64q23 -32 75 -32t75 32q21 30 21 64v382h-96v191h287v-573q0 -98 -56 -176q-79 -111 -231 -111q-151 0 -230 111q-57 80 -57 176v860q0 95 57 175q80 112 230 112q151 0 231 -112q56 -78 56 -175v-96h-191v96
q0 36 -21 64q-23 31 -75 31z" />
    <glyph glyph-name="h" unicode="h" 
d="M102 0v1434h192v-478h191v478h191v-1434h-191v765h-191v-765h-192z" />
    <glyph glyph-name="i" unicode="i" horiz-adv-x="395" 
d="M294 0h-192v1434h192v-1434z" />
    <glyph glyph-name="i" unicode="&#xef;" horiz-adv-x="395" 
d="M294 0h-192v1434h192v-1434z" />
    <glyph glyph-name="i" unicode="&#xee;" horiz-adv-x="395" 
d="M294 0h-192v1434h192v-1434z" />
    <glyph glyph-name="i" unicode="&#xed;" horiz-adv-x="395" 
d="M294 0h-192v1434h192v-1434z" />
    <glyph glyph-name="i" unicode="&#xec;" horiz-adv-x="395" 
d="M294 0h-192v1434h192v-1434z" />
    <glyph glyph-name="j" unicode="j" 
d="M102 1051v383h574v-1147q0 -98 -56 -176q-79 -111 -231 -111q-151 0 -230 111q-57 80 -57 176v191h192v-191q0 -37 20 -64q23 -32 75 -32t75 32q21 28 21 64v955h-191v-191h-192z" />
    <glyph glyph-name="k" unicode="k" horiz-adv-x="790" 
d="M102 1434h192v-558q81 30 129 115q73 127 73 347v96h191v-96q0 -270 -98 -442q-48 -86 -121 -141q73 -66 125 -177q94 -202 94 -482v-96h-191v96q0 238 -76 401q-52 110 -126 149v-646h-192v1434z" />
    <glyph glyph-name="l" unicode="l" 
d="M102 0v1434h192v-1243h191v287h191v-478h-574z" />
    <glyph glyph-name="m" unicode="m" horiz-adv-x="1161" 
d="M102 0v1434h96q68 0 147 -23t148 -72q47 -35 83 -79q34 45 78 78q127 96 309 96h95v-1434h-191v1231q-59 -15 -98 -46q-93 -70 -93 -229v-287h-191v287q0 152 -104 228q-38 28 -87 43v-1227h-192z" />
    <glyph glyph-name="n" unicode="n" 
d="M676 1434v-1434h-191v629l-191 192v-821h-192v1434h192v-343l191 -191v534h191z" />
    <glyph glyph-name="n" unicode="&#xf1;" 
d="M676 1434v-1434h-191v629l-191 192v-821h-192v1434h192v-343l191 -191v534h191z" />
    <glyph glyph-name="o" unicode="o" 
d="M389 1242q-52 0 -75 -31q-20 -29 -20 -64v-860q0 -37 20 -64q23 -32 75 -32t75 32q21 30 21 64v860q0 36 -21 64q-23 31 -75 31zM102 1147q0 95 57 175q80 112 230 112q151 0 231 -112q56 -78 56 -175v-860q0 -98 -56 -176q-79 -111 -231 -111q-151 0 -230 111
q-57 80 -57 176v860z" />
    <glyph glyph-name="o" unicode="&#xf8;" 
d="M389 1242q-52 0 -75 -31q-20 -29 -20 -64v-860q0 -37 20 -64q23 -32 75 -32t75 32q21 30 21 64v860q0 36 -21 64q-23 31 -75 31zM102 1147q0 95 57 175q80 112 230 112q151 0 231 -112q56 -78 56 -175v-860q0 -98 -56 -176q-79 -111 -231 -111q-151 0 -230 111
q-57 80 -57 176v860z" />
    <glyph glyph-name="o" unicode="&#xf6;" 
d="M389 1242q-52 0 -75 -31q-20 -29 -20 -64v-860q0 -37 20 -64q23 -32 75 -32t75 32q21 30 21 64v860q0 36 -21 64q-23 31 -75 31zM102 1147q0 95 57 175q80 112 230 112q151 0 231 -112q56 -78 56 -175v-860q0 -98 -56 -176q-79 -111 -231 -111q-151 0 -230 111
q-57 80 -57 176v860z" />
    <glyph glyph-name="o" unicode="&#xf5;" 
d="M389 1242q-52 0 -75 -31q-20 -29 -20 -64v-860q0 -37 20 -64q23 -32 75 -32t75 32q21 30 21 64v860q0 36 -21 64q-23 31 -75 31zM102 1147q0 95 57 175q80 112 230 112q151 0 231 -112q56 -78 56 -175v-860q0 -98 -56 -176q-79 -111 -231 -111q-151 0 -230 111
q-57 80 -57 176v860z" />
    <glyph glyph-name="o" unicode="&#xf4;" 
d="M389 1242q-52 0 -75 -31q-20 -29 -20 -64v-860q0 -37 20 -64q23 -32 75 -32t75 32q21 30 21 64v860q0 36 -21 64q-23 31 -75 31zM102 1147q0 95 57 175q80 112 230 112q151 0 231 -112q56 -78 56 -175v-860q0 -98 -56 -176q-79 -111 -231 -111q-151 0 -230 111
q-57 80 -57 176v860z" />
    <glyph glyph-name="o" unicode="&#xf3;" 
d="M389 1242q-52 0 -75 -31q-20 -29 -20 -64v-860q0 -37 20 -64q23 -32 75 -32t75 32q21 30 21 64v860q0 36 -21 64q-23 31 -75 31zM102 1147q0 95 57 175q80 112 230 112q151 0 231 -112q56 -78 56 -175v-860q0 -98 -56 -176q-79 -111 -231 -111q-151 0 -230 111
q-57 80 -57 176v860z" />
    <glyph glyph-name="o" unicode="&#xf2;" 
d="M389 1242q-52 0 -75 -31q-20 -29 -20 -64v-860q0 -37 20 -64q23 -32 75 -32t75 32q21 30 21 64v860q0 36 -21 64q-23 31 -75 31zM102 1147q0 95 57 175q80 112 230 112q151 0 231 -112q56 -78 56 -175v-860q0 -98 -56 -176q-79 -111 -231 -111q-151 0 -230 111
q-57 80 -57 176v860z" />
    <glyph glyph-name="p" unicode="p" 
d="M102 0v1434h574v-96q0 -269 -96 -441q-100 -181 -286 -219v-678h-192zM294 1242v-365q71 29 119 113q54 97 68 252h-187z" />
    <glyph glyph-name="q" unicode="q" 
d="M389 1242q-52 0 -75 -31q-20 -29 -20 -64v-860q0 -37 20 -64q23 -32 75 -32t75 32q21 30 21 64v860q0 36 -21 64q-23 31 -75 31zM102 1147q0 95 57 175q80 112 230 112q151 0 231 -112q56 -78 56 -175v-860q0 -98 -56 -176q-50 -70 -135 -97v-205h-191v205
q-85 27 -135 97q-57 80 -57 176v860z" />
    <glyph glyph-name="r" unicode="r" 
d="M578 648q98 -155 98 -361v-287h-191v287q0 149 -69 260q-48 77 -122 105v-652h-192v1434h574v-96q0 -269 -96 -441q-45 -80 -106 -131q63 -51 104 -118zM413 990q54 97 68 252h-187v-365q71 29 119 113z" />
    <glyph glyph-name="s" unicode="s" 
d="M389 1242q-52 0 -75 -31q-20 -29 -20 -64v-56l382 -382v-422q0 -98 -56 -176q-80 -111 -231 -111t-230 111q-57 80 -57 176v191h192v-191q0 -37 20 -64q23 -32 75 -32t75 32q21 30 21 64v342l-383 383v135q0 95 57 175q80 112 230 112q151 0 231 -112q56 -78 56 -175v-96
h-191v96q0 36 -21 64q-23 31 -75 31z" />
    <glyph glyph-name="s" unicode="&#xdf;" 
d="M389 1242q-52 0 -75 -31q-20 -29 -20 -64v-56l382 -382v-422q0 -98 -56 -176q-80 -111 -231 -111t-230 111q-57 80 -57 176v191h192v-191q0 -37 20 -64q23 -32 75 -32t75 32q21 30 21 64v342l-383 383v135q0 95 57 175q80 112 230 112q151 0 231 -112q56 -78 56 -175v-96
h-191v96q0 36 -21 64q-23 31 -75 31z" />
    <glyph glyph-name="t" unicode="t" horiz-adv-x="968" 
d="M102 1051v383h765v-383h-191v191h-96v-1242h-191v1242h-95v-191h-192z" />
    <glyph glyph-name="u" unicode="u" 
d="M102 1434h192v-1147q0 -37 20 -64q23 -32 75 -32t75 32q21 30 21 64v1147h191v-1147q0 -98 -56 -176q-80 -111 -231 -111t-230 111q-57 80 -57 176v1147z" />
    <glyph glyph-name="u" unicode="&#xfc;" 
d="M102 1434h192v-1147q0 -37 20 -64q23 -32 75 -32t75 32q21 30 21 64v1147h191v-1147q0 -98 -56 -176q-80 -111 -231 -111t-230 111q-57 80 -57 176v1147z" />
    <glyph glyph-name="u" unicode="&#xfb;" 
d="M102 1434h192v-1147q0 -37 20 -64q23 -32 75 -32t75 32q21 30 21 64v1147h191v-1147q0 -98 -56 -176q-80 -111 -231 -111t-230 111q-57 80 -57 176v1147z" />
    <glyph glyph-name="u" unicode="&#xfa;" 
d="M102 1434h192v-1147q0 -37 20 -64q23 -32 75 -32t75 32q21 30 21 64v1147h191v-1147q0 -98 -56 -176q-80 -111 -231 -111t-230 111q-57 80 -57 176v1147z" />
    <glyph glyph-name="u" unicode="&#xf9;" 
d="M102 1434h192v-1147q0 -37 20 -64q23 -32 75 -32t75 32q21 30 21 64v1147h191v-1147q0 -98 -56 -176q-80 -111 -231 -111t-230 111q-57 80 -57 176v1147z" />
    <glyph glyph-name="v" unicode="v" 
d="M102 323v1111h192v-999q53 -41 95 -104q41 62 96 104v999h191v-1111l-53 -26q-50 -25 -94 -105.5t-44 -191.5h-191q0 111 -44.5 191.5t-94.5 105.5z" />
    <glyph glyph-name="w" unicode="w" horiz-adv-x="1161" 
d="M1058 1434v-1434h-95q-68 0 -147.5 22.5t-147.5 71.5q-50 36 -84 79q-34 -44 -77 -77q-127 -96 -309 -96h-96v1434h192v-1231q59 15 97 45q94 71 94 230v764h191v-764q0 -153 103 -228q38 -28 88 -43v1227h191z" />
    <glyph glyph-name="x" unicode="x" 
d="M102 1434h192v-192q0 -96 95 -226q96 132 96 226v192h191v-192q0 -102 -45 -193.5t-120 -188.5q75 -97 120 -188.5t45 -193.5v-478h-191v478q0 94 -96 226q-95 -130 -95 -226v-478h-192v478q0 102 45 193.5t120 188.5q-75 97 -120 188.5t-45 193.5v192z" />
    <glyph glyph-name="y" unicode="y" 
d="M102 1434h192v-192q0 -96 95 -226q96 132 96 226v192h191v-192q0 -60 -16 -118.5t-48.5 -114t-58.5 -93t-68 -89.5v-827h-191v827q-42 53 -68 89.5t-59 93t-49 114.5t-16 118v192z" />
    <glyph glyph-name="y" unicode="&#xff;" 
d="M102 1434h192v-192q0 -96 95 -226q96 132 96 226v192h191v-192q0 -60 -16 -118.5t-48.5 -114t-58.5 -93t-68 -89.5v-827h-191v827q-42 53 -68 89.5t-59 93t-49 114.5t-16 118v192z" />
    <glyph glyph-name="y" unicode="&#xfd;" 
d="M102 1434h192v-192q0 -96 95 -226q96 132 96 226v192h191v-192q0 -60 -16 -118.5t-48.5 -114t-58.5 -93t-68 -89.5v-827h-191v827q-42 53 -68 89.5t-59 93t-49 114.5t-16 118v192z" />
    <glyph glyph-name="z" unicode="z" 
d="M102 1051v383h574v-422l-382 -383v-438h191v287h191v-478h-574v709l383 382v151h-191v-191h-192z" />
    <glyph glyph-name="braceleft" unicode="{" horiz-adv-x="587" 
d="M198 1117q0 111 88 199t199 88v-191q-32 0 -64 -32t-32 -64v-191q0 -106 -80 -191q80 -85 80 -191v-287q0 -32 32 -64t64 -32v-191q-111 0 -199 88t-88 199v287q0 32 -32 64q-31 31 -64 31v191q32 0 64 32t32 64v191z" />
    <glyph glyph-name="bar" unicode="|" horiz-adv-x="395" 
d="M294 66h-192v1242h192v-1242z" />
    <glyph glyph-name="braceright" unicode="}" horiz-adv-x="587" 
d="M389 257q0 -111 -88 -199t-199 -88v191q32 0 64 32t32 64v191q0 106 80 191q-80 85 -80 191v287q0 32 -32 64t-64 32v191q111 0 199 -88t88 -199v-287q0 -31 32 -63t64 -32v-191q-32 0 -64 -32t-32 -64v-191z" />
    <glyph glyph-name="asciitilde" unicode="~" horiz-adv-x="1009" 
d="M907 572q-100 -100 -235 -100t-235 100q-43 44 -99 44t-100 -44l-136 135q100 100 235 100t235 -100q44 -43 100 -43t99 43z" />
    <glyph glyph-name="nonbreakingspace" unicode="&#xa0;" horiz-adv-x="399" 
 />
    <glyph glyph-name="guillemotleft" unicode="&#xab;" horiz-adv-x="1077" 
d="M755 639l219 -219l-135 -135l-354 354l354 355l135 -136zM457 994l135 -136l-219 -219l219 -219l-135 -135l-355 354z" />
    <glyph glyph-name="guillemotright" unicode="&#xbb;" horiz-adv-x="1077" 
d="M322 639l-220 219l136 136l354 -355l-354 -354l-136 135zM620 285l-135 135l219 219l-219 219l135 136l354 -355z" />
    <glyph glyph-name="divide" unicode="&#xf7;" horiz-adv-x="968" 
d="M580 1051v-191h-191v191h191zM867 765v-192h-765v192h765zM580 478v-191h-191v191h191z" />
    <glyph glyph-name="uni401" unicode="&#x401;" 
d="M198 1622h191v-191h-191v191zM485 1622h191v-191h-191v191zM160 1116q51 104 153 160q107 60 267 60h96v-383h-191v183q-45 -8 -79 -27q-50 -27 -75 -79q-31 -63 -36 -172h190v-191h-191v-478h191v287h191v-478h-574v772q0 66 2 108t15.5 113.5t40.5 124.5z" />
    <glyph glyph-name="uni410" unicode="&#x410;" 
d="M580 1431h96v-1433h-191v669h-191v-669h-192v860q0 79 21.5 172t68.5 174q59 102 155.5 164.5t232.5 62.5zM485 858v366q-79 -31 -128 -115q-63 -109 -63 -251h191z" />
    <glyph glyph-name="uni411" unicode="&#x411;" 
d="M102 -2v1433h574v-478h-191v287h-191v-487q186 -38 286 -219q96 -172 96 -441v-95h-574zM294 554v-365h187q-14 155 -68 252q-48 84 -119 113z" />
    <glyph glyph-name="uni412" unicode="&#x412;" 
d="M676 93v-95h-574v1433h574v-95q0 -260 -109 -443q-50 -85 -120 -140q73 -70 124 -176q51 -107 78 -235t27 -249zM293 880q67 35 110 110q58 98 76 250h-186v-360zM399 494q-46 96 -105 139v-444h186q-18 175 -81 305z" />
    <glyph glyph-name="uni413" unicode="&#x413;" 
d="M102 -2v1433h574v-478h-191v287h-191v-1242h-192z" />
    <glyph glyph-name="uni414" unicode="&#x414;" horiz-adv-x="886" 
d="M730 189h96v-382h-191v191h-382v-191h-192v382h96v669v8q0 66 2 108t15.5 113t40.5 124q52 106 152 161q105 59 268 59h95v-1242zM539 189v1043q-42 -8 -79 -28q-49 -27 -74 -78q-24 -49 -31 -111t-7 -157v-669h191z" />
    <glyph glyph-name="uni415" unicode="&#x415;" 
d="M160 1211q51 105 153 161q105 59 267 59h96v-382h-191v183q-42 -8 -79 -28q-50 -27 -75 -78q-31 -63 -36 -173h190v-191h-191v-573h191v287h191v-478h-574v868q0 66 2 108t15.5 113t40.5 124z" />
    <glyph glyph-name="uni416" unicode="&#x416;" horiz-adv-x="1161" 
d="M294 -2h-192v95q0 274 91 481q50 111 120 179q-69 54 -117 143q-94 173 -94 440v95h192v-95q0 -221 70 -349q43 -80 109 -110v554h191v-558q82 30 130 116q73 127 73 347v95h191v-95q0 -270 -98 -442q-48 -86 -121 -141q73 -66 125 -177q94 -202 94 -483v-95h-191v95
q0 239 -76 402q-51 109 -127 149v-646h-191v640q-60 -40 -105 -141q-74 -167 -74 -404v-95z" />
    <glyph glyph-name="uni417" unicode="&#x417;" 
d="M102 1049v382h574v-382q0 -148 -77 -249q-17 -23 -38 -41q115 -107 115 -283v-478h-574v478h192v-287h191v287q0 93 -55 144q-52 47 -136 47v191q109 0 153 58q38 48 38 133v191h-191v-191h-192z" />
    <glyph glyph-name="uni418" unicode="&#x418;" 
d="M102 -2v1433h192v-534l191 192v342h191v-1433h-191v820l-191 -191v-629h-192z" />
    <glyph glyph-name="uni419" unicode="&#x419;" 
d="M676 1622q0 -112 -81 -199t-206 -87t-206 87t-81 199h192q0 -38 27 -66.5t68 -28.5t68.5 28.5t27.5 66.5h191zM102 -2v1242h192v-438l191 191v247h191v-1242h-191v725l-191 -191v-534h-192z" />
    <glyph glyph-name="uni41a" unicode="&#x41a;" horiz-adv-x="790" 
d="M102 1431h192v-558q80 30 129 116q73 127 73 347v95h191v-95q0 -270 -98 -442q-48 -86 -121 -141q73 -66 125 -177q94 -202 94 -483v-95h-191v95q0 239 -76 402q-52 110 -126 149v-646h-192v1433z" />
    <glyph glyph-name="uni41b" unicode="&#x41b;" 
d="M485 1224q-79 -31 -128 -115q-63 -109 -63 -251v-860h-192v860q0 79 21.5 172t68.5 174q59 102 155.5 164.5t232.5 62.5h96v-1433h-191v1226z" />
    <glyph glyph-name="uni41c" unicode="&#x41c;" horiz-adv-x="1161" 
d="M102 2v1434h96q68 0 147 -23t148 -72q49 -36 83 -78q33 43 78 77q127 96 309 96h95v-1434h-191v1231q-61 -16 -98 -45q-93 -70 -93 -230v-287h-191v287q0 152 -104 228q-38 28 -87 43v-1227h-192z" />
    <glyph glyph-name="uni41d" unicode="&#x41d;" 
d="M102 2v1434h192v-478h191v478h191v-1434h-191v765h-191v-765h-192z" />
    <glyph glyph-name="uni41e" unicode="&#x41e;" 
d="M389 1245q-52 0 -75 -32q-21 -30 -21 -64v-860q0 -36 21 -64q23 -32 75 -32t75 32q21 30 21 64v860q0 36 -21 64q-23 32 -75 32zM102 1149q0 96 57 176q80 111 230 111q151 0 231 -111q56 -78 56 -176v-860q0 -97 -56 -175q-80 -112 -231 -112t-230 112q-57 80 -57 175
v860z" />
    <glyph glyph-name="uni41f" unicode="&#x41f;" 
d="M102 2v1434h574v-1434h-191v1243h-191v-1243h-192z" />
    <glyph glyph-name="uni420" unicode="&#x420;" 
d="M102 2v1434h574v-96q0 -268 -96 -440q-100 -181 -286 -219v-679h-192zM294 1245v-365q72 29 119 112q54 97 68 253h-187z" />
    <glyph glyph-name="uni421" unicode="&#x421;" 
d="M389 1245q-52 0 -75 -32q-20 -29 -20 -64v-860q0 -37 20 -64q23 -32 75 -32t75 32q21 30 21 64v287h191v-287q0 -97 -56 -175q-80 -112 -231 -112t-230 112q-57 80 -57 175v860q0 95 57 175q80 112 230 112q151 0 231 -112q56 -78 56 -175v-95h-191v95q0 36 -21 64
q-23 32 -75 32z" />
    <glyph glyph-name="uni422" unicode="&#x422;" horiz-adv-x="1161" 
d="M102 2v1434h956v-1434h-191v1243h-191v-1052h-191v1052h-191v-1243h-192z" />
    <glyph glyph-name="uni423" unicode="&#x423;" horiz-adv-x="765" 
d="M473 887v549h191v-1434h-562v96q0 121 26 249t76 234q51 108 121 177q-67 53 -117 140q-106 186 -106 442v96h192v-96q0 -208 79 -346q41 -73 100 -107zM473 193v441q-52 -43 -96 -135q-63 -133 -79 -306h175z" />
    <glyph glyph-name="uni424" unicode="&#x424;" horiz-adv-x="1171" 
d="M389 1340q51 0 96 -14v110h191v-113q48 17 107 17q150 0 230 -111q57 -80 57 -175v-478q0 -95 -61 -177q-82 -110 -226 -110q-54 0 -107 16v-303h-191v301q-45 -14 -96 -14q-151 0 -230 111q-57 80 -57 176v478q0 95 57 175q80 111 230 111zM482 1060q0 2 0.5 6.5
t0.5 6.5q-6 27 -19 44q-23 32 -75 32t-75 -32q-20 -29 -20 -63v-478q0 -37 20 -64q23 -32 75 -32t75 32q21 30 21 64v461q-3 15 -3 23zM676 1073v-497q0 -43 22 -67q27 -29 85 -29q48 0 73 34q23 30 23 62v478q0 35 -21 63q-23 32 -75 32q-66 0 -95 -49q-9 -15 -12 -27z" />
    <glyph glyph-name="uni425" unicode="&#x425;" 
d="M102 1436h192v-191q0 -96 95 -226q96 132 96 226v191h191v-191q0 -103 -45 -194.5t-120 -188.5q75 -97 120 -188.5t45 -193.5v-478h-191v478q0 94 -96 226q-95 -130 -95 -226v-478h-192v478q0 102 45 193.5t120 188.5q-75 97 -120 188.5t-45 194.5v191z" />
    <glyph glyph-name="uni426" unicode="&#x426;" horiz-adv-x="874" 
d="M580 2h-478v1434h192v-1243h191v1243h191v-1243h95v-382h-191v191z" />
    <glyph glyph-name="uni427" unicode="&#x427;" 
d="M365 993q47 -84 120 -113v556h191v-1434h-191v679q-188 38 -287 219q-96 172 -96 440v96h192v-96q0 -219 71 -347z" />
    <glyph glyph-name="uni428" unicode="&#x428;" horiz-adv-x="1161" 
d="M1058 1436v-1434h-956v1434h192v-1243h191v1052h191v-1052h191v1243h191z" />
    <glyph glyph-name="uni429" unicode="&#x429;" horiz-adv-x="1255" 
d="M963 2h-861v1434h192v-1243h191v1052h191v-1052h191v1243h191v-1243h96v-382h-191v191z" />
    <glyph glyph-name="uni42a" unicode="&#x42a;" horiz-adv-x="874" 
d="M198 2v299l191 764v180h-95v-191h-192v382h478v-394l-75 -302q98 -47 165 -165q101 -180 101 -477v-96h-573zM456 544l-67 -267v-84h188q-14 180 -74 288q-23 41 -47 63z" />
    <glyph glyph-name="uni42b" unicode="&#x42b;" horiz-adv-x="1064" 
d="M771 1436h192v-1434h-192v1434zM676 98v-96h-574v1434h192v-584q197 -45 297 -274q85 -195 85 -480zM416 502q-48 111 -122 148v-457h188q-12 187 -66 309z" />
    <glyph glyph-name="uni42c" unicode="&#x42c;" 
d="M102 2v1434h192v-678q186 -38 286 -219q96 -172 96 -441v-96h-574zM294 559v-366h187q-14 156 -68 253q-48 84 -119 113z" />
    <glyph glyph-name="uni42d" unicode="&#x42d;" 
d="M464 1213q-23 32 -75 32t-75 -32q-20 -27 -20 -64v-95h-192v95q0 95 57 175q80 112 230 112q151 0 231 -112q56 -78 56 -175v-860q0 -97 -56 -175q-79 -112 -231 -112q-149 0 -230 112q-57 80 -57 175v287h192v-287q0 -35 20 -64q23 -32 75 -32t75 32q21 28 21 64v478
h-191v191h191v191q0 34 -21 64z" />
    <glyph glyph-name="uni42e" unicode="&#x42e;" horiz-adv-x="1064" 
d="M294 2h-192v1434h192v-478h95v191q0 98 56 176q80 111 231 111q150 0 230 -111q57 -80 57 -176v-860q0 -95 -57 -175q-80 -112 -230 -112q-152 0 -231 112q-56 78 -56 175v478h-95v-765zM676 1245q-53 0 -76 -32q-20 -29 -20 -64v-860q0 -37 20 -64q23 -32 76 -32
q52 0 75 32q20 29 20 64v860q0 37 -20 64q-23 32 -75 32z" />
    <glyph glyph-name="uni42f" unicode="&#x42f;" 
d="M103 1436h573v-1434h-191v653q-73 -28 -122 -106q-69 -111 -69 -260v-287h-191l-1 287q0 202 99 361q42 69 103 118q-60 51 -106 132q-95 170 -95 440v96zM485 880v365h-187q15 -158 67 -253q47 -82 120 -112z" />
    <glyph glyph-name="uni430" unicode="&#x430;" 
d="M580 1431h96v-1433h-191v669h-191v-669h-192v860q0 79 21.5 172t68.5 174q59 102 155.5 164.5t232.5 62.5zM485 858v366q-79 -31 -128 -115q-63 -109 -63 -251h191z" />
    <glyph glyph-name="uni431" unicode="&#x431;" 
d="M102 -2v1433h574v-478h-191v287h-191v-487q186 -38 286 -219q96 -172 96 -441v-95h-574zM294 554v-365h187q-14 155 -68 252q-48 84 -119 113z" />
    <glyph glyph-name="uni432" unicode="&#x432;" 
d="M676 93v-95h-574v1433h574v-95q0 -260 -109 -443q-50 -85 -120 -140q73 -70 124 -176q51 -107 78 -235t27 -249zM293 880q67 35 110 110q58 98 76 250h-186v-360zM399 494q-46 96 -105 139v-444h186q-18 175 -81 305z" />
    <glyph glyph-name="uni433" unicode="&#x433;" 
d="M102 -2v1433h574v-478h-191v287h-191v-1242h-192z" />
    <glyph glyph-name="uni434" unicode="&#x434;" horiz-adv-x="804" 
d="M689 189h96v-382h-191v191h-382v-191h-192v382h96v669v8q0 66 2 108t15.5 113t40.5 124q52 106 153 161q105 59 267 59h95v-1242zM498 189v1043q-42 -8 -79 -28q-49 -27 -74 -78q-24 -49 -31 -111t-7 -157v-669h191z" />
    <glyph glyph-name="uni435" unicode="&#x435;" 
d="M160 1211q51 105 153 161q105 59 267 59h96v-382h-191v183q-42 -8 -79 -28q-50 -27 -75 -78q-31 -63 -36 -173h190v-191h-191v-573h191v287h191v-478h-574v868q0 66 2 108t15.5 113t40.5 124z" />
    <glyph glyph-name="uni436" unicode="&#x436;" horiz-adv-x="1161" 
d="M294 -2h-192v95q0 274 91 481q50 111 120 179q-69 54 -117 143q-94 173 -94 440v95h192v-95q0 -221 70 -349q43 -80 109 -110v554h191v-558q82 30 130 116q73 127 73 347v95h191v-95q0 -270 -98 -442q-48 -86 -121 -141q73 -66 125 -177q94 -202 94 -483v-95h-191v95
q0 239 -76 402q-51 109 -127 149v-646h-191v640q-60 -40 -105 -141q-74 -167 -74 -404v-95z" />
    <glyph glyph-name="uni437" unicode="&#x437;" 
d="M102 1049v382h574v-382q0 -148 -77 -249q-17 -23 -38 -41q115 -107 115 -283v-478h-574v478h192v-287h191v287q0 93 -55 144q-52 47 -136 47v191q109 0 153 58q38 48 38 133v191h-191v-191h-192z" />
    <glyph glyph-name="uni438" unicode="&#x438;" 
d="M102 -2v1433h192v-534l191 192v342h191v-1433h-191v820l-191 -191v-629h-192z" />
    <glyph glyph-name="uni439" unicode="&#x439;" 
d="M676 1622q0 -112 -81 -199t-206 -87t-206 87t-81 199h192q0 -38 27 -66.5t68 -28.5t68.5 28.5t27.5 66.5h191zM102 -2v1242h192v-438l191 191v247h191v-1242h-191v725l-191 -191v-534h-192z" />
    <glyph glyph-name="uni43a" unicode="&#x43a;" horiz-adv-x="790" 
d="M102 1431h192v-558q80 30 129 116q73 127 73 347v95h191v-95q0 -270 -98 -442q-48 -86 -121 -141q73 -66 125 -177q94 -202 94 -483v-95h-191v95q0 239 -76 402q-52 110 -126 149v-646h-192v1433z" />
    <glyph glyph-name="uni43b" unicode="&#x43b;" 
d="M485 1224q-79 -31 -128 -115q-63 -109 -63 -251v-860h-192v860q0 79 21.5 172t68.5 174q59 102 155.5 164.5t232.5 62.5h96v-1433h-191v1226z" />
    <glyph glyph-name="uni43c" unicode="&#x43c;" horiz-adv-x="1161" 
d="M102 2v1434h96q68 0 147 -23t148 -72q49 -36 83 -78q33 43 78 77q127 96 309 96h95v-1434h-191v1231q-61 -16 -98 -45q-93 -70 -93 -230v-287h-191v287q0 152 -104 228q-38 28 -87 43v-1227h-192z" />
    <glyph glyph-name="uni43d" unicode="&#x43d;" 
d="M102 2v1434h192v-478h191v478h191v-1434h-191v765h-191v-765h-192z" />
    <glyph glyph-name="uni43e" unicode="&#x43e;" 
d="M389 1245q-52 0 -75 -32q-21 -30 -21 -64v-860q0 -36 21 -64q23 -32 75 -32t75 32q21 30 21 64v860q0 36 -21 64q-23 32 -75 32zM102 1149q0 96 57 176q80 111 230 111q151 0 231 -111q56 -78 56 -176v-860q0 -97 -56 -175q-80 -112 -231 -112t-230 112q-57 80 -57 175
v860z" />
    <glyph glyph-name="uni43f" unicode="&#x43f;" 
d="M102 2v1434h574v-1434h-191v1243h-191v-1243h-192z" />
    <glyph glyph-name="uni440" unicode="&#x440;" 
d="M102 2v1434h574v-96q0 -268 -96 -440q-100 -181 -286 -219v-679h-192zM294 1245v-365q72 29 119 112q54 97 68 253h-187z" />
    <glyph glyph-name="uni441" unicode="&#x441;" 
d="M389 1245q-52 0 -75 -32q-20 -29 -20 -64v-860q0 -37 20 -64q23 -32 75 -32t75 32q21 30 21 64v287h191v-287q0 -97 -56 -175q-80 -112 -231 -112t-230 112q-57 80 -57 175v860q0 95 57 175q80 112 230 112q151 0 231 -112q56 -78 56 -175v-95h-191v95q0 36 -21 64
q-23 32 -75 32z" />
    <glyph glyph-name="uni442" unicode="&#x442;" horiz-adv-x="1161" 
d="M102 2v1434h956v-1434h-191v1243h-191v-1052h-191v1052h-191v-1243h-192z" />
    <glyph glyph-name="uni443" unicode="&#x443;" horiz-adv-x="765" 
d="M473 887v549h191v-1434h-562v96q0 121 26 249t76 234q51 108 121 177q-67 53 -117 140q-106 186 -106 442v96h192v-96q0 -208 79 -346q41 -73 100 -107zM473 193v441q-52 -43 -96 -135q-63 -133 -79 -306h175z" />
    <glyph glyph-name="uni444" unicode="&#x444;" horiz-adv-x="1171" 
d="M389 1340q51 0 96 -14v110h191v-113q48 17 107 17q150 0 230 -111q57 -80 57 -175v-478q0 -95 -61 -177q-82 -110 -226 -110q-54 0 -107 16v-303h-191v301q-45 -14 -96 -14q-151 0 -230 111q-57 80 -57 176v478q0 95 57 175q80 111 230 111zM482 1060q0 2 0.5 6.5
t0.5 6.5q-6 27 -19 44q-23 32 -75 32t-75 -32q-20 -29 -20 -63v-478q0 -37 20 -64q23 -32 75 -32t75 32q21 30 21 64v461q-3 15 -3 23zM676 1073v-497q0 -43 22 -67q27 -29 85 -29q48 0 73 34q23 30 23 62v478q0 35 -21 63q-23 32 -75 32q-66 0 -95 -49q-9 -15 -12 -27z" />
    <glyph glyph-name="uni445" unicode="&#x445;" 
d="M102 1436h192v-191q0 -96 95 -226q96 132 96 226v191h191v-191q0 -103 -45 -194.5t-120 -188.5q75 -97 120 -188.5t45 -193.5v-478h-191v478q0 94 -96 226q-95 -130 -95 -226v-478h-192v478q0 102 45 193.5t120 188.5q-75 97 -120 188.5t-45 194.5v191z" />
    <glyph glyph-name="uni446" unicode="&#x446;" horiz-adv-x="792" 
d="M580 2h-478v1434h192v-1243h191v1243h191v-1243h95v-382h-191v191z" />
    <glyph glyph-name="uni447" unicode="&#x447;" 
d="M365 993q47 -84 120 -113v556h191v-1434h-191v679q-188 38 -287 219q-96 172 -96 440v96h192v-96q0 -219 71 -347z" />
    <glyph glyph-name="uni448" unicode="&#x448;" horiz-adv-x="1161" 
d="M1058 1436v-1434h-956v1434h192v-1243h191v1052h191v-1052h191v1243h191z" />
    <glyph glyph-name="uni449" unicode="&#x449;" horiz-adv-x="1173" 
d="M963 2h-861v1434h192v-1243h191v1052h191v-1052h191v1243h191v-1243h96v-382h-191v191z" />
    <glyph glyph-name="uni44a" unicode="&#x44a;" horiz-adv-x="874" 
d="M198 2v299l191 764v180h-95v-191h-192v382h478v-394l-75 -302q98 -47 165 -165q101 -180 101 -477v-96h-573zM456 544l-67 -267v-84h188q-14 180 -74 288q-23 41 -47 63z" />
    <glyph glyph-name="uni44b" unicode="&#x44b;" horiz-adv-x="1064" 
d="M771 1436h192v-1434h-192v1434zM676 98v-96h-574v1434h192v-584q197 -45 297 -274q85 -195 85 -480zM416 502q-48 111 -122 148v-457h188q-12 187 -66 309z" />
    <glyph glyph-name="uni44c" unicode="&#x44c;" 
d="M102 2v1434h192v-678q186 -38 286 -219q96 -172 96 -441v-96h-574zM294 559v-366h187q-14 156 -68 253q-48 84 -119 113z" />
    <glyph glyph-name="uni44d" unicode="&#x44d;" 
d="M464 1213q-23 32 -75 32t-75 -32q-20 -27 -20 -64v-95h-192v95q0 95 57 175q80 112 230 112q151 0 231 -112q56 -78 56 -175v-860q0 -97 -56 -175q-79 -112 -231 -112q-149 0 -230 112q-57 80 -57 175v287h192v-287q0 -35 20 -64q23 -32 75 -32t75 32q21 28 21 64v478
h-191v191h191v191q0 34 -21 64z" />
    <glyph glyph-name="uni44e" unicode="&#x44e;" horiz-adv-x="1064" 
d="M294 2h-192v1434h192v-478h95v191q0 98 56 176q80 111 231 111q150 0 230 -111q57 -80 57 -176v-860q0 -95 -57 -175q-80 -112 -230 -112q-152 0 -231 112q-56 78 -56 175v478h-95v-765zM676 1245q-53 0 -76 -32q-20 -29 -20 -64v-860q0 -37 20 -64q23 -32 76 -32
q52 0 75 32q20 29 20 64v860q0 37 -20 64q-23 32 -75 32z" />
    <glyph glyph-name="uni44f" unicode="&#x44f;" 
d="M103 1436h573v-1434h-191v653q-73 -28 -122 -106q-69 -111 -69 -260v-287h-191l-1 287q0 202 99 361q42 69 103 118q-60 51 -106 132q-95 170 -95 440v96zM485 880v365h-187q15 -158 67 -253q47 -82 120 -112z" />
    <glyph glyph-name="uni451" unicode="&#x451;" 
d="M198 1622h191v-191h-191v191zM485 1622h191v-191h-191v191zM160 1116q51 104 153 160q107 60 267 60h96v-383h-191v183q-45 -8 -79 -27q-50 -27 -75 -79q-31 -63 -36 -172h190v-191h-191v-478h191v287h191v-478h-574v772q0 66 2 108t15.5 113.5t40.5 124.5z" />
    <glyph glyph-name="emdash" unicode="&#x2014;" horiz-adv-x="968" 
d="M867 735v-191h-765v191h765z" />
    <glyph glyph-name="ellipsis" unicode="&#x2026;" horiz-adv-x="968" 
d="M294 191v-191h-192v191h192zM580 191v-191h-191v191h191zM867 191v-191h-191v191h191z" />
    <glyph glyph-name="Euro" unicode="&#x20ac;" 
d="M485 1242q-53 0 -76 -31q-20 -27 -20 -64v-191h191v-191h-191v-96h191v-191h-191v-191q0 -37 20 -64q23 -32 76 -32h191v-191h-191q-152 0 -231 111q-56 78 -56 176v191h-96v191h96v96h-96v191h96v191q0 97 56 175q80 112 231 112h191v-192h-191z" />
    </font>
</defs>
</svg>
